<?xml version="1.0" encoding="UTF-8"?>
<svg width="171px" height="74px" viewBox="0 0 171 74" version="1.1" xmlns="http://www.w3.org/2000/svg" xmlns:xlink="http://www.w3.org/1999/xlink">
    <title>Artboard</title>
    <defs>
        <linearGradient x1="100%" y1="47.1211297%" x2="1.39187901%" y2="52.8575198%" id="linearGradient-1">
            <stop stop-color="#9FACE6" offset="0%"></stop>
            <stop stop-color="#FAACA8" offset="100%"></stop>
        </linearGradient>
    </defs>
    <g id="Artboard" stroke="none" stroke-width="1" fill="none" fill-rule="evenodd">
        <path d="M14.5246635,72.103946 C23.398409,72.103946 28.7129049,67.7925053 28.7129049,61.0068856 L28.7129049,60.9823888 C28.7129049,55.4216102 25.3974396,52.4085011 18.0351562,50.9386917 L14.3052578,50.1792903 C10.2584398,49.3708951 8.45443659,48.0725636 8.45443659,45.8433528 L8.45443659,45.8188559 C8.45443659,43.2956833 10.7216298,41.5564089 14.5002851,41.5319121 C18.1326699,41.5319121 20.6680258,43.2221928 21.0337021,45.9903337 L21.0580805,46.2842956 L28.0059307,46.2842956 L27.9815522,45.8188559 C27.6402543,39.62116 22.6426779,35.5301907 14.5002851,35.5301907 C6.69919024,35.5301907 1.09215328,39.7926377 1.09215328,46.2597987 L1.09215328,46.2842956 C1.09215328,51.6001059 4.60264599,54.9316737 11.5504961,56.3279926 L15.2560162,57.0628972 C19.6197536,57.9692797 21.3506216,59.1696239 21.3506216,61.5703125 L21.3506216,61.5948093 C21.3506216,64.2894597 18.7908873,66.0777278 14.7196909,66.0777278 C10.6972514,66.0777278 7.79621921,64.3629502 7.3330292,61.6193061 L7.28427235,61.3498411 L0.336422217,61.3498411 L0.360800639,61.7417903 C0.775233805,68.2579449 6.16286496,72.103946 14.5246635,72.103946 Z M33.1853958,71.4915254 L40.5476791,71.4915254 L40.5476791,36.1426112 L33.1853958,36.1426112 L33.1853958,71.4915254 Z M62.2313355,72.103946 C72.031461,72.103946 77.8335253,66.2737023 77.8335253,56.6464513 L77.8335253,52.5799788 L62.6213903,52.5799788 L62.6213903,58.0917638 L70.6662694,58.0917638 L70.641891,58.606197 C70.4468636,62.9666314 67.1557767,65.8327595 62.3532276,65.8327595 C56.5024065,65.8327595 52.7968864,61.3008475 52.7968864,53.6333422 L52.7968864,53.6088453 C52.7968864,46.1128178 56.2830007,41.8013771 62.085065,41.8013771 C66.0587477,41.8013771 68.8622662,43.7856197 70.0324304,47.2151748 L70.1299441,47.460143 L77.5166058,47.460143 L77.4434706,47.1171875 C76.2733063,40.4785487 70.5199989,35.5301907 62.0606866,35.5301907 C51.7486143,35.5301907 45.2883326,42.364804 45.2883326,53.6823358 L45.2883326,53.7068326 C45.2883326,65.220339 51.7242359,72.103946 62.2313355,72.103946 Z M82.8667199,60.2474841 L98.663937,60.2474841 L98.663937,54.0007945 L82.8667199,54.0007945 L82.8667199,60.2474841 Z M119.421214,72.103946 C128.489986,72.103946 134.14578,66.8371292 134.14578,58.9981462 L134.14578,36.1426112 L126.783497,36.1426112 L126.783497,58.336732 C126.783497,62.9176377 124.150627,65.8327595 119.421214,65.8327595 C114.6918,65.8327595 112.034552,62.9176377 112.034552,58.336732 L112.034552,36.1426112 L104.672268,36.1426112 L104.672268,58.9981462 C104.672268,66.8616261 110.401198,72.103946 119.421214,72.103946 Z M138.106324,71.4915254 L146.05369,71.4915254 L153.732892,59.0961335 L153.976677,59.0961335 L161.704636,71.4915254 L170.090813,71.4915254 L158.70609,53.8293167 L158.70609,53.7313294 L170.237084,36.1426112 L162.021556,36.1426112 L154.586137,48.8809587 L154.317974,48.8809587 L146.833799,36.1426112 L138.179459,36.1426112 L149.29602,53.6088453 L149.29602,53.6823358 L138.106324,71.4915254 Z" id="Combined-Shape" fill="url(#linearGradient-1)" fill-rule="nonzero"></path>
        <path d="M15.4607949,3.64267744 C15.1357493,3.68350547 14.8594605,3.72433351 14.6319286,3.76516155 C14.4043967,3.80598958 14.1484232,3.86314883 13.8640083,3.9366393 C13.5308366,4.02646098 13.3175254,4.18569032 13.2240748,4.41432733 C13.1306241,4.64296434 13.0838988,4.90426377 13.0838988,5.19822564 L13.0838988,14.7764831 C13.0838988,15.6583686 12.9071553,16.4667638 12.5536682,17.2016684 C12.2001811,17.9365731 11.7146442,18.5530764 11.0970575,19.0511785 C10.4713447,19.5411149 9.77249658,19.9106087 9.00051323,20.1596597 C8.22852988,20.4087107 7.40372662,20.5332362 6.52610344,20.5332362 C5.00651517,20.5332362 3.78149949,20.1657839 2.8510564,19.4308792 C1.92061331,18.6959746 1.45539177,17.6875221 1.45539177,16.4055217 C1.45539177,15.6461202 1.66870295,15.0173685 2.09532533,14.5192664 C2.52194771,14.0211644 3.10906136,13.7721133 3.85666629,13.7721133 C4.56364051,13.7721133 5.12637574,13.9803363 5.54487198,14.3967823 C5.96336821,14.8132283 6.17261633,15.3276615 6.17261633,15.9400821 C6.17261633,16.462681 5.99180971,16.9464932 5.63019645,17.3915188 C5.2685832,17.8365444 4.85618157,18.2468662 4.39299156,18.6224841 L4.39299156,18.7817135 C4.46612682,18.9450256 4.62458656,19.0838409 4.86837078,19.1981594 C5.112155,19.3124779 5.36000228,19.3696372 5.61191264,19.3696372 C6.5870495,19.3696372 7.35293824,19.0185161 7.90957887,18.3162738 C8.46621949,17.6140316 8.7445398,16.5525026 8.7445398,15.131687 L8.7445398,5.32070975 C8.7445398,5.02674788 8.69984603,4.78177966 8.61045849,4.58580508 C8.52107094,4.38983051 8.30572822,4.21835275 7.96443031,4.07137182 C7.7206461,3.96521893 7.42607351,3.87539725 7.08071253,3.80190678 C6.73535156,3.72841631 6.44890511,3.67533987 6.22137318,3.64267744 L6.22137318,2.68730138 L15.4607949,2.68730138 L15.4607949,3.64267744 Z M29.9106296,17.1404264 C29.6262146,17.605866 29.2828852,18.0447674 28.8806413,18.4571306 C28.4783973,18.8694937 28.0213019,19.2226562 27.509355,19.5166181 C26.9649036,19.8269112 26.4143576,20.0616724 25.857717,20.2209017 C25.3010764,20.3801311 24.6611428,20.4597458 23.9379163,20.4597458 C22.7352475,20.4597458 21.697133,20.288268 20.8235729,19.9453125 C19.9500128,19.602357 19.2288179,19.1410002 18.659988,18.5612421 C18.0911582,17.9814839 17.6665673,17.2976143 17.3862155,16.5096332 C17.1058637,15.7216521 16.9656877,14.8663047 16.9656877,13.9435911 C16.9656877,13.1106992 17.1180529,12.312511 17.4227831,11.5490267 C17.7275134,10.7855425 18.1602304,10.1057556 18.7209341,9.50966631 C19.2735116,8.92990819 19.9703282,8.46038577 20.8113837,8.10109905 C21.6524393,7.74181232 22.59304,7.56216896 23.633186,7.56216896 C24.7708457,7.56216896 25.7053518,7.70098429 26.4367045,7.97861494 C27.1680571,8.25624559 27.7734546,8.64002913 28.2528969,9.12996557 C28.7160869,9.59540519 29.0533217,10.1445423 29.2646014,10.7773769 C29.475881,11.4102114 29.5815209,12.073667 29.5815209,12.7677436 L29.5815209,13.5638904 L21.3416144,13.5638904 C21.3416144,15.2378399 21.6625969,16.5116746 22.304562,17.3853946 C22.9465271,18.2591146 23.9663578,18.6959746 25.3640539,18.6959746 C26.1279112,18.6959746 26.81457,18.4857102 27.4240306,18.0651814 C28.0334911,17.6446526 28.5535641,17.1118468 28.9842495,16.4667638 L29.9106296,17.1404264 Z M25.254351,12.4860302 C25.254351,11.9960937 25.2299726,11.4939089 25.1812158,10.9794756 C25.1324589,10.4650424 25.0471345,10.0445136 24.9252424,9.7178893 C24.787098,9.33410576 24.5981652,9.04422669 24.3584441,8.84825212 C24.1187229,8.65227754 23.8160242,8.55429025 23.4503479,8.55429025 C22.824635,8.55429025 22.3248774,8.87274894 21.9510749,9.50966631 C21.5772725,10.1465837 21.374119,11.1550362 21.3416144,12.5350238 L25.254351,12.4860302 Z M47.1639827,20.0677966 L39.8260778,20.0677966 L39.8260778,19.1736626 C39.9804745,19.1573314 40.1673757,19.1369174 40.3867815,19.1124206 C40.6061873,19.0879237 40.7727732,19.0470957 40.8865391,18.9899364 C41.0571881,18.9001148 41.1790802,18.769465 41.2522154,18.5979873 C41.3253507,18.4265095 41.3619183,18.1733757 41.3619183,17.8385858 L41.3619183,12.1063294 C41.3619183,11.2734375 41.2095532,10.6467271 40.9048229,10.2261984 C40.6000927,9.80566958 40.1511234,9.59540519 39.5579151,9.59540519 C39.2328695,9.59540519 38.9301708,9.64439883 38.6498189,9.74238612 C38.3694671,9.84037341 38.0952099,9.98327154 37.8270472,10.1710805 C37.5913891,10.3343927 37.4024564,10.5017876 37.2602489,10.6732654 C37.1180415,10.8447431 36.9981809,10.9958069 36.9006672,11.1264566 L36.9006672,17.7038533 C36.9006672,17.9896495 36.9412979,18.2284936 37.0225593,18.4203853 C37.1038207,18.6122771 37.237902,18.7572166 37.4248033,18.8552039 C37.5548215,18.9286944 37.7173443,18.9940192 37.9123717,19.0511785 C38.1073991,19.1083377 38.2983634,19.1491658 38.4852646,19.1736626 L38.4852646,20.0677966 L31.0742245,20.0677966 L31.0742245,19.1736626 C31.277378,19.1573314 31.482563,19.134876 31.6897796,19.1062963 C31.8969962,19.0777167 32.0737397,19.0389301 32.2200103,18.9899364 C32.4800468,18.9001148 32.6588219,18.7612994 32.7563355,18.5734905 C32.8538492,18.3856815 32.9026061,18.1407133 32.9026061,17.8385858 L32.9026061,10.7100106 C32.9026061,10.4568768 32.8375969,10.2078257 32.7075787,9.96285752 C32.5775604,9.7178893 32.4069115,9.51783192 32.1956318,9.36268538 C32.0493613,9.26469809 31.8644916,9.18304202 31.6410228,9.11771716 C31.4175539,9.0523923 31.1717381,9.00748146 30.9035755,8.98298464 L30.9035755,8.08885064 L36.717829,7.77039195 L36.9006672,7.95411811 L36.9006672,9.73013771 L36.949424,9.73013771 C37.176956,9.52599753 37.4532448,9.28102931 37.7782904,8.99523305 C38.103336,8.70943679 38.4040032,8.47671698 38.680292,8.29707362 C38.9809592,8.10109905 39.375077,7.9337041 39.8626454,7.79488877 C40.3502138,7.65607345 40.8702868,7.58666578 41.4228644,7.58666578 C42.7474253,7.58666578 43.740846,7.96432512 44.4031264,8.7196438 C45.0654069,9.47496248 45.3965471,10.4772908 45.3965471,11.7266287 L45.3965471,17.7283501 C45.3965471,18.0304776 45.4412409,18.271363 45.5306284,18.4510064 C45.620016,18.6306497 45.7866018,18.7735478 46.0303861,18.8797007 C46.1604043,18.93686 46.3208956,18.9940192 46.5118599,19.0511785 C46.7028242,19.1083377 46.9201984,19.1491658 47.1639827,19.1736626 L47.1639827,20.0677966 Z M53.6786411,1.10725636 L53.8614792,1.30323093 L53.8614792,13.9435911 C54.4628136,13.404661 55.1393148,12.7799921 55.8909828,12.0695842 C56.6426508,11.3591764 57.2460168,10.7712526 57.7010806,10.305813 C57.9692433,10.0281824 58.1175453,9.81791799 58.1459868,9.67501986 C58.1744283,9.53212173 58.1886491,9.44434145 58.1886491,9.41167903 C58.1886491,9.26469809 58.0606624,9.14221398 57.8046889,9.04422669 C57.5487155,8.94623941 57.1647554,8.86050053 56.6528085,8.78701006 L56.6528085,7.91737288 L62.8449276,7.91737288 L62.8449276,8.76251324 C62.0323135,8.99115025 61.4126953,9.20549744 60.9860729,9.40555482 C60.5594506,9.6056122 60.094229,9.87303584 59.5904083,10.2078257 C59.2572365,10.4282971 58.9342225,10.6589755 58.621366,10.899861 C58.3085096,11.1407464 57.9489279,11.4408325 57.5426209,11.8001192 C58.3389827,12.9596354 59.0743984,14.0334128 59.748868,15.0214513 C60.4233377,16.0094898 61.1303119,17.0546875 61.8697907,18.1570445 C62.1217011,18.540828 62.4345575,18.7980447 62.8083599,18.9286944 C63.1821624,19.0593441 63.5559649,19.1410002 63.9297673,19.1736626 L63.9297673,20.0677966 L58.1886491,20.0677966 C57.4816748,18.8184587 56.8356467,17.7589711 56.2505646,16.889334 C55.6654824,16.0196968 55.1129049,15.213343 54.5928319,14.4702728 L53.8614792,15.0949417 L53.8614792,17.7650953 C53.8614792,18.0590572 53.9041415,18.2999426 53.989466,18.4877516 C54.0747904,18.6755606 54.2393448,18.8143759 54.483129,18.9041976 C54.6293995,18.9695224 54.8000485,19.0266817 54.9950758,19.0756753 C55.1901032,19.124669 55.3851306,19.1573314 55.580158,19.1736626 L55.580158,20.0677966 L48.0350365,20.0677966 L48.0350365,19.1736626 C48.23819,19.1573314 48.4413435,19.134876 48.644497,19.1062963 C48.8476505,19.0777167 49.0264256,19.0389301 49.1808223,18.9899364 C49.4408588,18.9001148 49.6176024,18.7612994 49.711053,18.5734905 C49.8045036,18.3856815 49.8512289,18.1407133 49.8512289,17.8385858 L49.8512289,4.18160752 C49.8512289,3.91214248 49.7923144,3.63247043 49.6744853,3.34259137 C49.5566563,3.05271231 49.3839758,2.83428231 49.1564439,2.68730138 C49.0020472,2.58931409 48.7704522,2.50765802 48.4616589,2.44233316 C48.1528655,2.3770083 47.8725137,2.33618026 47.6206033,2.31984905 L47.6206033,1.42571504 L53.6786411,1.10725636 Z M69.7252623,7.77039195 L69.9081005,7.95411811 L69.9081005,17.6793565 C69.9081005,17.9651527 69.9690465,18.2080795 70.0909386,18.4081369 C70.2128307,18.6081943 70.3875428,18.7572166 70.6150747,18.8552039 C70.7775975,18.9286944 70.9563726,18.9940192 71.1514,19.0511785 C71.3464273,19.1083377 71.5495809,19.1491658 71.7608605,19.1736626 L71.7608605,20.0677966 L64.0572793,20.0677966 L64.0572793,19.1736626 C64.268559,19.1573314 64.4757755,19.1369174 64.6789291,19.1124206 C64.8820826,19.0879237 65.0567946,19.0470957 65.2030651,18.9899364 C65.4631016,18.8919492 65.6459398,18.7510924 65.7515796,18.5673663 C65.8572194,18.3836401 65.9100393,18.1407133 65.9100393,17.8385858 L65.9100393,10.7100106 C65.9100393,10.4242143 65.8450302,10.1731219 65.715012,9.95673332 C65.5849937,9.74034472 65.4224709,9.56682556 65.2274435,9.43617585 C65.081173,9.33818856 64.8597357,9.24428407 64.5631316,9.15446239 C64.2665274,9.06464071 63.9963333,9.00748146 63.752549,8.98298464 L63.752549,8.08885064 L69.7252623,7.77039195 Z M67.5799612,1.10725636 C68.2381786,1.10725636 68.8029454,1.32772775 69.2742615,1.76867055 C69.7455777,2.20961335 69.9812357,2.74037782 69.9812357,3.36096398 C69.9812357,3.98155014 69.7435461,4.51027322 69.2681669,4.94713321 C68.7927877,5.3839932 68.2300525,5.6024232 67.5799612,5.6024232 C66.9217438,5.6024232 66.3549455,5.3839932 65.8795663,4.94713321 C65.4041871,4.51027322 65.1664975,3.98155014 65.1664975,3.36096398 C65.1664975,2.74037782 65.4041871,2.20961335 65.8795663,1.76867055 C66.3549455,1.32772775 66.9217438,1.10725636 67.5799612,1.10725636 Z M88.9654568,20.0677966 L81.6275519,20.0677966 L81.6275519,19.1736626 C81.7819486,19.1573314 81.9688498,19.1369174 82.1882556,19.1124206 C82.4076614,19.0879237 82.5742473,19.0470957 82.6880132,18.9899364 C82.8586622,18.9001148 82.9805543,18.769465 83.0536896,18.5979873 C83.1268248,18.4265095 83.1633924,18.1733757 83.1633924,17.8385858 L83.1633924,12.1063294 C83.1633924,11.2734375 83.0110273,10.6467271 82.706297,10.2261984 C82.4015668,9.80566958 81.9525975,9.59540519 81.3593893,9.59540519 C81.0343436,9.59540519 80.7316449,9.64439883 80.4512931,9.74238612 C80.1709412,9.84037341 79.896684,9.98327154 79.6285213,10.1710805 C79.3928633,10.3343927 79.2039305,10.5017876 79.061723,10.6732654 C78.9195156,10.8447431 78.799655,10.9958069 78.7021413,11.1264566 L78.7021413,17.7038533 C78.7021413,17.9896495 78.742772,18.2284936 78.8240334,18.4203853 C78.9052948,18.6122771 79.0393761,18.7572166 79.2262774,18.8552039 C79.3562956,18.9286944 79.5188184,18.9940192 79.7138458,19.0511785 C79.9088732,19.1083377 80.0998375,19.1491658 80.2867387,19.1736626 L80.2867387,20.0677966 L72.8756986,20.0677966 L72.8756986,19.1736626 C73.0788521,19.1573314 73.2840371,19.134876 73.4912537,19.1062963 C73.6984703,19.0777167 73.8752138,19.0389301 74.0214844,18.9899364 C74.2815209,18.9001148 74.460296,18.7612994 74.5578096,18.5734905 C74.6553233,18.3856815 74.7040802,18.1407133 74.7040802,17.8385858 L74.7040802,10.7100106 C74.7040802,10.4568768 74.6390711,10.2078257 74.5090528,9.96285752 C74.3790346,9.7178893 74.2083856,9.51783192 73.997106,9.36268538 C73.8508354,9.26469809 73.6659657,9.18304202 73.4424969,9.11771716 C73.219028,9.0523923 72.9732122,9.00748146 72.7050496,8.98298464 L72.7050496,8.08885064 L78.5193031,7.77039195 L78.7021413,7.95411811 L78.7021413,9.73013771 L78.7508982,9.73013771 C78.9784301,9.52599753 79.2547189,9.28102931 79.5797645,8.99523305 C79.9048101,8.70943679 80.2054773,8.47671698 80.4817661,8.29707362 C80.7824333,8.10109905 81.1765511,7.9337041 81.6641195,7.79488877 C82.151688,7.65607345 82.6717609,7.58666578 83.2243385,7.58666578 C84.5488994,7.58666578 85.5423201,7.96432512 86.2046005,8.7196438 C86.866881,9.47496248 87.1980212,10.4772908 87.1980212,11.7266287 L87.1980212,17.7283501 C87.1980212,18.0304776 87.242715,18.271363 87.3321025,18.4510064 C87.4214901,18.6306497 87.588076,18.7735478 87.8318602,18.8797007 C87.9618784,18.93686 88.1223697,18.9940192 88.313334,19.0511785 C88.5042983,19.1083377 88.7216726,19.1491658 88.9654568,19.1736626 L88.9654568,20.0677966 Z M95.7360886,20.4842426 C94.947853,20.4842426 94.1779012,20.3678827 93.4262332,20.1351629 C92.6745652,19.9024431 92.0915146,19.6554334 91.6770814,19.394134 L91.3114051,20.227026 L90.3606467,20.227026 L90.2021869,15.6583686 L91.0919993,15.6583686 C91.2138914,16.025821 91.4170449,16.4402255 91.7014599,16.9015824 C91.9858748,17.3629392 92.3109204,17.7773438 92.6765967,18.1447961 C93.0585253,18.5122484 93.4953054,18.8225415 93.9869369,19.0756753 C94.4785684,19.3288091 95.004736,19.4553761 95.5654397,19.4553761 C96.3049185,19.4553761 96.8554645,19.3104365 97.2170777,19.0205575 C97.578691,18.7306784 97.7594976,18.2836114 97.7594976,17.6793565 C97.7594976,17.3527322 97.6782362,17.0832671 97.5157134,16.8709613 C97.3531906,16.6586555 97.1297217,16.4749294 96.8453068,16.3197828 C96.5283873,16.1564707 96.1809948,16.0176554 95.8031293,15.9033369 C95.4252637,15.7890184 94.9600422,15.650203 94.4074646,15.4868909 C93.8548871,15.3235787 93.3815394,15.1582252 92.9874216,14.9908302 C92.5933038,14.8234353 92.1849652,14.5600945 91.7624059,14.2008077 C91.3967296,13.882349 91.1041885,13.4985655 90.8847827,13.0494571 C90.6653769,12.6003487 90.555674,12.0655014 90.555674,11.4449153 C90.555674,10.2935646 91.0371479,9.36268538 92.0000955,8.65227754 C92.9630432,7.9418697 94.2246265,7.58666578 95.7848455,7.58666578 C96.5243242,7.58666578 97.2048885,7.66219765 97.8265383,7.81326139 C98.448188,7.96432512 98.9702925,8.12967867 99.3928518,8.30932203 L99.6488253,7.58666578 L100.575205,7.58666578 L100.770233,11.7633739 L99.9047987,11.7633739 C99.6203838,10.9141508 99.1328154,10.1812875 98.4420934,9.56478416 C97.7513715,8.94828081 97.0078296,8.64002913 96.2114678,8.64002913 C95.585755,8.64002913 95.0941235,8.77067885 94.7365733,9.03197828 C94.3790232,9.29327772 94.2002481,9.65664725 94.2002481,10.1220869 C94.2002481,10.742673 94.4623161,11.1917814 94.9864522,11.4694121 C95.5105882,11.7470427 96.2439724,12.0083422 97.1866047,12.2533104 C98.6411839,12.6289283 99.7057083,13.1413202 100.380178,13.790486 C101.054648,14.4396517 101.391882,15.2664195 101.391882,16.2707892 C101.391882,17.6099488 100.869778,18.6469809 99.8255688,19.3818856 C98.7813598,20.1167903 97.4181997,20.4842426 95.7360886,20.4842426 Z" id="Combined-Shape" fill="#808096" fill-rule="nonzero" opacity="0.600616455"></path>
    </g>
</svg>