<?xml version="1.0" encoding="UTF-8"?>
<svg width="154px" height="67px" viewBox="0 0 154 67" version="1.1" xmlns="http://www.w3.org/2000/svg" xmlns:xlink="http://www.w3.org/1999/xlink">
    <title>Artboard</title>
    <defs>
        <linearGradient x1="100%" y1="47.1488913%" x2="1.39187901%" y2="52.829964%" id="linearGradient-1">
            <stop stop-color="#9FACE6" offset="0%"></stop>
            <stop stop-color="#FAACA8" offset="100%"></stop>
        </linearGradient>
    </defs>
    <g id="Artboard" stroke="none" stroke-width="1" fill="none" fill-rule="evenodd">
        <path d="M10.6367188,58.4882812 C17.7460938,58.4882812 22.0039062,55.0507812 22.0039062,49.640625 L22.0039062,49.6210938 C22.0039062,45.1875 19.3476562,42.7851562 13.4492188,41.6132812 L10.4609375,41.0078125 C7.21875,40.3632812 5.7734375,39.328125 5.7734375,37.5507812 L5.7734375,37.53125 C5.7734375,35.5195312 7.58984375,34.1328125 10.6171875,34.1132812 C13.5273438,34.1132812 15.5585938,35.4609375 15.8515625,37.6679688 L15.8710938,37.9023438 L21.4375,37.9023438 L21.4179688,37.53125 C21.1445312,32.5898438 17.140625,29.328125 10.6171875,29.328125 C4.3671875,29.328125 -0.125,32.7265625 -0.125,37.8828125 L-0.125,37.9023438 C-0.125,42.140625 2.6875,44.796875 8.25390625,45.9101562 L11.2226562,46.4960938 C14.71875,47.21875 16.1054688,48.1757812 16.1054688,50.0898438 L16.1054688,50.109375 C16.1054688,52.2578125 14.0546875,53.6835938 10.7929688,53.6835938 C7.5703125,53.6835938 5.24609375,52.3164062 4.875,50.1289062 L4.8359375,49.9140625 L-0.73046875,49.9140625 L-0.7109375,50.2265625 C-0.37890625,55.421875 3.9375,58.4882812 10.6367188,58.4882812 Z M25.5871299,58 L31.4855674,58 L31.4855674,29.8164062 L25.5871299,29.8164062 L25.5871299,58 Z M48.8578536,58.4882812 C56.7094161,58.4882812 61.3578536,53.8398438 61.3578536,46.1640625 L61.3578536,42.921875 L49.1703536,42.921875 L49.1703536,47.3164062 L55.6156661,47.3164062 L55.5961349,47.7265625 C55.4398849,51.203125 52.8031661,53.4882812 48.9555099,53.4882812 C44.2680099,53.4882812 41.2992599,49.875 41.2992599,43.7617188 L41.2992599,43.7421875 C41.2992599,37.765625 44.0922286,34.328125 48.7406661,34.328125 C51.9242599,34.328125 54.1703536,35.9101562 55.1078536,38.6445312 L55.1859786,38.8398438 L61.1039474,38.8398438 L61.0453536,38.5664062 C60.1078536,33.2734375 55.4984786,29.328125 48.7211349,29.328125 C40.4594161,29.328125 35.2836349,34.7773438 35.2836349,43.8007812 L35.2836349,43.8203125 C35.2836349,53 40.4398849,58.4882812 48.8578536,58.4882812 Z M65.3902961,49.0351562 L78.0465461,49.0351562 L78.0465461,44.0546875 L65.3902961,44.0546875 L65.3902961,49.0351562 Z M94.6766447,58.4882812 C101.94227,58.4882812 106.47352,54.2890625 106.47352,48.0390625 L106.47352,29.8164062 L100.575082,29.8164062 L100.575082,47.5117188 C100.575082,51.1640625 98.4657072,53.4882812 94.6766447,53.4882812 C90.8875822,53.4882812 88.758676,51.1640625 88.758676,47.5117188 L88.758676,29.8164062 L82.8602385,29.8164062 L82.8602385,48.0390625 C82.8602385,54.3085938 87.4500822,58.4882812 94.6766447,58.4882812 Z M109.646587,58 L116.013775,58 L122.166118,48.1171875 L122.361431,48.1171875 L128.552837,58 L135.271587,58 L126.150493,43.9179688 L126.150493,43.8398438 L135.388775,29.8164062 L128.806743,29.8164062 L122.849712,39.9726562 L122.634868,39.9726562 L116.638775,29.8164062 L109.705181,29.8164062 L118.611431,43.7421875 L118.611431,43.8007812 L109.646587,58 Z" id="Combined-Shape" fill="url(#linearGradient-1)" fill-rule="nonzero"></path>
        <path d="M11.3867188,3.90429688 C11.1263021,3.93684896 10.9049479,3.96940104 10.7226562,4.00195312 C10.5403646,4.03450521 10.3352865,4.08007812 10.1074219,4.13867188 C9.84049479,4.21028646 9.66959635,4.33723958 9.59472656,4.51953125 C9.51985677,4.70182292 9.48242188,4.91015625 9.48242188,5.14453125 L9.48242188,12.78125 C9.48242188,13.484375 9.34082031,14.1289062 9.05761719,14.7148438 C8.77441406,15.3007812 8.38541667,15.7923177 7.890625,16.1894531 C7.38932292,16.5800781 6.82942708,16.8746745 6.2109375,17.0732422 C5.59244792,17.2718099 4.93164062,17.3710938 4.22851562,17.3710938 C3.01106771,17.3710938 2.0296224,17.078125 1.28417969,16.4921875 C0.538736979,15.90625 0.166015625,15.1022135 0.166015625,14.0800781 C0.166015625,13.4746094 0.336914062,12.9733073 0.678710938,12.5761719 C1.02050781,12.1790365 1.49088542,11.9804688 2.08984375,11.9804688 C2.65625,11.9804688 3.10709635,12.1464844 3.44238281,12.4785156 C3.77766927,12.8105469 3.9453125,13.2207031 3.9453125,13.7089844 C3.9453125,14.125651 3.80045573,14.5113932 3.51074219,14.8662109 C3.22102865,15.2210286 2.890625,15.5481771 2.51953125,15.8476562 L2.51953125,15.9746094 C2.578125,16.1048177 2.70507812,16.2154948 2.90039062,16.3066406 C3.09570313,16.3977865 3.29427083,16.4433594 3.49609375,16.4433594 C4.27734375,16.4433594 4.89095052,16.1634115 5.33691406,15.6035156 C5.7828776,15.0436198 6.00585938,14.1972656 6.00585938,13.0644531 L6.00585938,5.2421875 C6.00585938,5.0078125 5.97005208,4.8125 5.8984375,4.65625 C5.82682292,4.5 5.65429688,4.36328125 5.38085938,4.24609375 C5.18554688,4.16145833 4.94954427,4.08984375 4.67285156,4.03125 C4.39615885,3.97265625 4.16666667,3.93033854 3.984375,3.90429688 L3.984375,3.14257812 L11.3867188,3.14257812 L11.3867188,3.90429688 Z M22.9634868,14.6660156 C22.7356223,15.0371094 22.4605572,15.3870443 22.1382915,15.7158203 C21.8160259,16.0445964 21.449815,16.3261719 21.0396587,16.5605469 C20.6034608,16.8079427 20.1623801,16.9951172 19.7164165,17.1220703 C19.270453,17.2490234 18.7577577,17.3125 18.1783306,17.3125 C17.2147889,17.3125 16.3830832,17.1757812 15.6832134,16.9023438 C14.9833436,16.6289062 14.4055441,16.2610677 13.949815,15.7988281 C13.4940858,15.3365885 13.1539165,14.7913411 12.9293072,14.1630859 C12.7046978,13.5348307 12.5923931,12.8528646 12.5923931,12.1171875 C12.5923931,11.453125 12.7144634,10.8167318 12.958604,10.2080078 C13.2027447,9.59928385 13.5494243,9.05729167 13.9986431,8.58203125 C14.4413514,8.11979167 14.9996197,7.74544271 15.6734478,7.45898438 C16.3472759,7.17252604 17.1008566,7.02929688 17.93419,7.02929688 C18.8456483,7.02929688 19.5943462,7.13997396 20.1802837,7.36132812 C20.7662212,7.58268229 21.2512473,7.88867188 21.6353618,8.27929688 C22.0064556,8.65039062 22.2766379,9.08821615 22.4459087,9.59277344 C22.6151796,10.0973307 22.699815,10.6263021 22.699815,11.1796875 L22.699815,11.8144531 L16.0982525,11.8144531 C16.0982525,13.1490885 16.3554139,14.1647135 16.8697368,14.8613281 C17.3840598,15.5579427 18.2011171,15.90625 19.3209087,15.90625 C19.9328879,15.90625 20.4830181,15.7386068 20.9712993,15.4033203 C21.4595806,15.0680339 21.8762473,14.6432292 22.2212993,14.1289062 L22.9634868,14.6660156 Z M19.2330181,10.9550781 C19.2330181,10.5644531 19.2134868,10.1640625 19.1744243,9.75390625 C19.1353618,9.34375 19.0670025,9.00846354 18.9693462,8.74804688 C18.8586691,8.44205729 18.7073019,8.2109375 18.5152447,8.0546875 C18.3231874,7.8984375 18.0806743,7.8203125 17.7877056,7.8203125 C17.2864035,7.8203125 16.8860129,8.07421875 16.5865337,8.58203125 C16.2870546,9.08984375 16.1242941,9.89388021 16.0982525,10.9941406 L19.2330181,10.9550781 Z M36.7863487,17 L30.9074424,17 L30.9074424,16.2871094 C31.0311404,16.2740885 31.1808799,16.2578125 31.3566612,16.2382812 C31.5324424,16.21875 31.665906,16.1861979 31.7570518,16.140625 C31.8937706,16.0690104 31.9914268,15.9648438 32.0500206,15.828125 C32.1086143,15.6914062 32.1379112,15.4895833 32.1379112,15.2226562 L32.1379112,10.6523438 C32.1379112,9.98828125 32.0158409,9.48860677 31.7717002,9.15332031 C31.5275596,8.81803385 31.1678591,8.65039062 30.6925987,8.65039062 C30.432182,8.65039062 30.189669,8.68945312 29.9650596,8.76757812 C29.7404502,8.84570312 29.5207237,8.95963542 29.3058799,9.109375 C29.1170779,9.23958333 28.9657107,9.37304688 28.8517784,9.50976562 C28.7378461,9.64648438 28.6418174,9.76692708 28.5636924,9.87109375 L28.5636924,15.1152344 C28.5636924,15.343099 28.5962445,15.5335286 28.6613487,15.6865234 C28.7264529,15.8395182 28.8338747,15.9550781 28.9836143,16.0332031 C29.087781,16.0917969 29.2179893,16.1438802 29.3742393,16.1894531 C29.5304893,16.235026 29.6834841,16.2675781 29.8332237,16.2871094 L29.8332237,17 L23.8957237,17 L23.8957237,16.2871094 C24.0584841,16.2740885 24.2228721,16.2561849 24.3888877,16.2333984 C24.5549034,16.210612 24.6965049,16.1796875 24.8136924,16.140625 C25.0220258,16.0690104 25.1652549,15.9583333 25.2433799,15.8085938 C25.3215049,15.6588542 25.3605674,15.4635417 25.3605674,15.2226562 L25.3605674,9.5390625 C25.3605674,9.33723958 25.3084841,9.13867188 25.2043174,8.94335938 C25.1001508,8.74804688 24.963432,8.58854167 24.7941612,8.46484375 C24.6769737,8.38671875 24.5288617,8.32161458 24.3498252,8.26953125 C24.1707888,8.21744792 23.9738487,8.18164062 23.7590049,8.16210938 L23.7590049,7.44921875 L28.4172081,7.1953125 L28.5636924,7.34179688 L28.5636924,8.7578125 L28.6027549,8.7578125 C28.7850466,8.59505208 29.0064008,8.39973958 29.2668174,8.171875 C29.5272341,7.94401042 29.7681195,7.75846354 29.9894737,7.61523438 C30.2303591,7.45898438 30.5461143,7.32552083 30.9367393,7.21484375 C31.3273643,7.10416667 31.744031,7.04882812 32.1867393,7.04882812 C33.2479372,7.04882812 34.0438357,7.3499349 34.5744346,7.95214844 C35.1050336,8.55436198 35.3703331,9.35351562 35.3703331,10.3496094 L35.3703331,15.1347656 C35.3703331,15.375651 35.4061404,15.5677083 35.4777549,15.7109375 C35.5493695,15.8541667 35.6828331,15.968099 35.8781456,16.0527344 C35.9823122,16.0983073 36.110893,16.1438802 36.2638877,16.1894531 C36.4168825,16.235026 36.5910362,16.2675781 36.7863487,16.2871094 L36.7863487,17 Z M42.0056949,1.8828125 L42.1521793,2.0390625 L42.1521793,12.1171875 C42.6339501,11.6875 43.1759423,11.1894531 43.7781558,10.6230469 C44.3803694,10.0566406 44.8637678,9.58789062 45.2283512,9.21679688 C45.4431949,8.99544271 45.56201,8.82779948 45.5847965,8.71386719 C45.6075829,8.5999349 45.6189762,8.52994792 45.6189762,8.50390625 C45.6189762,8.38671875 45.5164371,8.2890625 45.311359,8.2109375 C45.1062808,8.1328125 44.7986637,8.06445312 44.3885074,8.00585938 L44.3885074,7.3125 L49.3494449,7.3125 L49.3494449,7.98632812 C48.6984032,8.16861979 48.201984,8.33951823 47.8601871,8.49902344 C47.5183902,8.65852865 47.1456689,8.87174479 46.742023,9.13867188 C46.4750959,9.31445312 46.2163069,9.4983724 45.9656558,9.69042969 C45.7150048,9.88248698 45.4269189,10.1217448 45.101398,10.4082031 C45.7394189,11.3326823 46.3286116,12.1888021 46.8689762,12.9765625 C47.4093407,13.7643229 47.975747,14.5976562 48.5681949,15.4765625 C48.7700178,15.7825521 49.0206689,15.9876302 49.320148,16.0917969 C49.6196272,16.1959635 49.9191064,16.2610677 50.2185855,16.2871094 L50.2185855,17 L45.6189762,17 C45.0525699,16.0039062 44.5349918,15.1591797 44.0662418,14.4658203 C43.5974918,13.7724609 43.1547834,13.1295573 42.7381168,12.5371094 L42.1521793,13.0351562 L42.1521793,15.1640625 C42.1521793,15.3984375 42.186359,15.5904948 42.2547183,15.7402344 C42.3230777,15.889974 42.4549137,16.000651 42.6502262,16.0722656 C42.7674137,16.124349 42.9041324,16.1699219 43.0603824,16.2089844 C43.2166324,16.2480469 43.3728824,16.2740885 43.5291324,16.2871094 L43.5291324,17 L37.4842105,17 L37.4842105,16.2871094 C37.6469709,16.2740885 37.8097314,16.2561849 37.9724918,16.2333984 C38.1352522,16.210612 38.2784814,16.1796875 38.4021793,16.140625 C38.6105126,16.0690104 38.7521142,15.9583333 38.826984,15.8085938 C38.9018538,15.6588542 38.9392887,15.4635417 38.9392887,15.2226562 L38.9392887,4.33398438 C38.9392887,4.11914062 38.8920881,3.89615885 38.7976871,3.66503906 C38.703286,3.43391927 38.5649397,3.25976562 38.382648,3.14257812 C38.2589501,3.06445312 38.0734032,2.99934896 37.8260074,2.94726562 C37.5786116,2.89518229 37.3540022,2.86263021 37.1521793,2.84960938 L37.1521793,2.13671875 L42.0056949,1.8828125 Z M54.8617599,7.1953125 L55.0082442,7.34179688 L55.0082442,15.0957031 C55.0082442,15.3235677 55.0570724,15.5172526 55.1547286,15.6767578 C55.2523849,15.836263 55.3923588,15.9550781 55.5746505,16.0332031 C55.7048588,16.0917969 55.848088,16.1438802 56.004338,16.1894531 C56.160588,16.235026 56.3233484,16.2675781 56.4926192,16.2871094 L56.4926192,17 L50.3207442,17 L50.3207442,16.2871094 C50.4900151,16.2740885 50.6560307,16.2578125 50.8187911,16.2382812 C50.9815515,16.21875 51.1215255,16.1861979 51.238713,16.140625 C51.4470463,16.0625 51.5935307,15.9501953 51.6781661,15.8037109 C51.7628015,15.6572266 51.8051192,15.4635417 51.8051192,15.2226562 L51.8051192,9.5390625 C51.8051192,9.31119792 51.7530359,9.1110026 51.6488692,8.93847656 C51.5447026,8.76595052 51.4144942,8.62760417 51.2582442,8.5234375 C51.1410567,8.4453125 50.9636479,8.37044271 50.7260177,8.29882812 C50.4883875,8.22721354 50.2719161,8.18164062 50.0766036,8.16210938 L50.0766036,7.44921875 L54.8617599,7.1953125 Z M53.1430099,1.8828125 C53.6703536,1.8828125 54.1228276,2.05859375 54.5004317,2.41015625 C54.8780359,2.76171875 55.066838,3.18489583 55.066838,3.6796875 C55.066838,4.17447917 54.8764083,4.59602865 54.4955489,4.94433594 C54.1146896,5.29264323 53.6638432,5.46679688 53.1430099,5.46679688 C52.6156661,5.46679688 52.1615646,5.29264323 51.7807052,4.94433594 C51.3998458,4.59602865 51.2094161,4.17447917 51.2094161,3.6796875 C51.2094161,3.18489583 51.3998458,2.76171875 51.7807052,2.41015625 C52.1615646,2.05859375 52.6156661,1.8828125 53.1430099,1.8828125 Z M70.2764186,17 L64.3975123,17 L64.3975123,16.2871094 C64.5212103,16.2740885 64.6709498,16.2578125 64.8467311,16.2382812 C65.0225123,16.21875 65.1559759,16.1861979 65.2471217,16.140625 C65.3838405,16.0690104 65.4814967,15.9648438 65.5400905,15.828125 C65.5986842,15.6914062 65.6279811,15.4895833 65.6279811,15.2226562 L65.6279811,10.6523438 C65.6279811,9.98828125 65.5059108,9.48860677 65.2617701,9.15332031 C65.0176295,8.81803385 64.657929,8.65039062 64.1826686,8.65039062 C63.9222519,8.65039062 63.6797389,8.68945312 63.4551295,8.76757812 C63.2305201,8.84570312 63.0107936,8.95963542 62.7959498,9.109375 C62.6071478,9.23958333 62.4557806,9.37304688 62.3418483,9.50976562 C62.227916,9.64648438 62.1318873,9.76692708 62.0537623,9.87109375 L62.0537623,15.1152344 C62.0537623,15.343099 62.0863144,15.5335286 62.1514186,15.6865234 C62.2165228,15.8395182 62.3239446,15.9550781 62.4736842,16.0332031 C62.5778509,16.0917969 62.7080592,16.1438802 62.8643092,16.1894531 C63.0205592,16.235026 63.173554,16.2675781 63.3232936,16.2871094 L63.3232936,17 L57.3857936,17 L57.3857936,16.2871094 C57.548554,16.2740885 57.712942,16.2561849 57.8789576,16.2333984 C58.0449733,16.210612 58.1865748,16.1796875 58.3037623,16.140625 C58.5120957,16.0690104 58.6553248,15.9583333 58.7334498,15.8085938 C58.8115748,15.6588542 58.8506373,15.4635417 58.8506373,15.2226562 L58.8506373,9.5390625 C58.8506373,9.33723958 58.798554,9.13867188 58.6943873,8.94335938 C58.5902207,8.74804688 58.4535019,8.58854167 58.2842311,8.46484375 C58.1670436,8.38671875 58.0189316,8.32161458 57.8398951,8.26953125 C57.6608587,8.21744792 57.4639186,8.18164062 57.2490748,8.16210938 L57.2490748,7.44921875 L61.907278,7.1953125 L62.0537623,7.34179688 L62.0537623,8.7578125 L62.0928248,8.7578125 C62.2751165,8.59505208 62.4964707,8.39973958 62.7568873,8.171875 C63.017304,7.94401042 63.2581894,7.75846354 63.4795436,7.61523438 C63.720429,7.45898438 64.0361842,7.32552083 64.4268092,7.21484375 C64.8174342,7.10416667 65.2341009,7.04882812 65.6768092,7.04882812 C66.7380071,7.04882812 67.5339056,7.3499349 68.0645045,7.95214844 C68.5951035,8.55436198 68.860403,9.35351562 68.860403,10.3496094 L68.860403,15.1347656 C68.860403,15.375651 68.8962103,15.5677083 68.9678248,15.7109375 C69.0394394,15.8541667 69.172903,15.968099 69.3682155,16.0527344 C69.4723821,16.0983073 69.6009629,16.1438802 69.7539576,16.1894531 C69.9069524,16.235026 70.0811061,16.2675781 70.2764186,16.2871094 L70.2764186,17 Z M75.7008429,17.3320312 C75.0693325,17.3320312 74.4524705,17.2392578 73.850257,17.0537109 C73.2480434,16.8681641 72.7809211,16.671224 72.4488898,16.4628906 L72.1559211,17.1269531 L71.3942023,17.1269531 L71.2672492,13.484375 L71.9801398,13.484375 C72.0777961,13.7773438 72.2405565,14.1077474 72.4684211,14.4755859 C72.6962856,14.8434245 72.9567023,15.1738281 73.2496711,15.4667969 C73.5556606,15.7597656 73.9055955,16.0071615 74.2994757,16.2089844 C74.6933559,16.4108073 75.1149054,16.5117188 75.5641242,16.5117188 C76.1565721,16.5117188 76.5976528,16.3961589 76.8873664,16.1650391 C77.1770799,15.9339193 77.3219367,15.577474 77.3219367,15.0957031 C77.3219367,14.8352865 77.2568325,14.6204427 77.1266242,14.4511719 C76.9964158,14.281901 76.8173794,14.1354167 76.5895148,14.0117188 C76.3356086,13.8815104 76.0572882,13.7708333 75.7545539,13.6796875 C75.4518195,13.5885417 75.0790981,13.4778646 74.6363898,13.3476562 C74.1936815,13.2174479 73.8144497,13.085612 73.4986945,12.9521484 C73.1829393,12.8186849 72.8557908,12.608724 72.5172492,12.3222656 C72.2242804,12.0683594 71.9899054,11.7623698 71.8141242,11.4042969 C71.6383429,11.046224 71.5504523,10.6197917 71.5504523,10.125 C71.5504523,9.20703125 71.9361945,8.46484375 72.7076789,7.8984375 C73.4791632,7.33203125 74.4899054,7.04882812 75.7399054,7.04882812 C76.3323533,7.04882812 76.8776007,7.10904948 77.3756476,7.22949219 C77.8736945,7.3499349 78.2919888,7.48177083 78.6305304,7.625 L78.8356086,7.04882812 L79.5777961,7.04882812 L79.7340461,10.3789062 L79.0406867,10.3789062 C78.8128221,9.70182292 78.4221971,9.11751302 77.8688117,8.62597656 C77.3154263,8.1344401 76.7197231,7.88867188 76.0817023,7.88867188 C75.5804002,7.88867188 75.18652,7.99283854 74.9000617,8.20117188 C74.6136033,8.40950521 74.4703742,8.69921875 74.4703742,9.0703125 C74.4703742,9.56510417 74.6803351,9.92317708 75.100257,10.1445312 C75.5201789,10.3658854 76.107744,10.5742188 76.8629523,10.7695312 C78.0283169,11.0690104 78.8811815,11.4775391 79.4215461,11.9951172 C79.9619106,12.5126953 80.2320929,13.171875 80.2320929,13.9726562 C80.2320929,15.0403646 79.8137987,15.8671875 78.9772101,16.453125 C78.1406216,17.0390625 77.0484992,17.3320312 75.7008429,17.3320312 Z" id="Combined-Shape" fill="#808096" fill-rule="nonzero" opacity="0.600616455"></path>
    </g>
</svg>